# xmcd
#
# Track frame offsets:
#	150
#	13076
#	23748
#	36638
#	45634
#	56581
#	72662
#	83645
#	94961
#	103155
#	117106
#	128494
#	136645
#	145420
#	157600
#	166874
#	177102
#	187703
#	197594
#	209546
#
# Disc length: 2963 seconds
#
# Revision: 1
# Processed by: cddbd v1.5.1PL2 Copyright (c) Steve Scherf et al.
# Submitted via: EasyCDDAExtractor 9.1.3.1
#
DISCID=0a0b9114
DTITLE=Ricky Norton - Toi l'étranger
DYEAR=1900
DGENRE=
TTITLE0=Toi l'étranger
TTITLE1=Quand les chats sont là
TTITLE2=Laisse-moi rire
TTITLE3=Ma petite amie est vache
TTITLE4=Guitar express
TTITLE5=Toi et le rock
TTITLE6=L'amour que j'ai pour toi
TTITLE7=Un coeur tout neuf
TTITLE8=Twiste a Saint Tropez
TTITLE9=Je suis ton chat
TTITLE10=Horizon
TTITLE11=Venez les filles
TTITLE12=Une fille comme toi
TTITLE13=Jolie Fille
TTITLE14=Allons reviens danser
TTITLE15=Je serai toujours là
TTITLE16=The savage
TTITLE17=Sans vous, je suis fou
TTITLE18=Dis-moi oui
TTITLE19=The stranger
EXTD=
EXTT0=
EXTT1=
EXTT2=
EXTT3=
EXTT4=
EXTT5=
EXTT6=
EXTT7=
EXTT8=
EXTT9=
EXTT10=
EXTT11=
EXTT12=
EXTT13=
EXTT14=
EXTT15=
EXTT16=
EXTT17=
EXTT18=
EXTT19=
PLAYORDER=
